<svg xmlns="http://www.w3.org/2000/svg" version="1.1" xmlns:xlink="http://www.w3.org/1999/xlink" xmlns:svgjs="http://svgjs.dev/svgjs" width="1500" height="1500" viewBox="0 0 1500 1500"><rect width="1500" height="1500" fill="#000000"></rect><g transform="matrix(0.6666666666666666,0,0,0.6666666666666666,249.39393939393938,646.3953929207289)"><svg viewBox="0 0 396 82" data-background-color="#ffffff" preserveAspectRatio="xMidYMid meet" height="310" width="1500" xmlns="http://www.w3.org/2000/svg" xmlns:xlink="http://www.w3.org/1999/xlink"><g id="tight-bounds" transform="matrix(1,0,0,1,0.2400000000000091,0.10763442177528759)"><svg viewBox="0 0 395.52 81.7847311564494" height="81.7847311564494" width="395.52"><g><svg viewBox="0 0 511.93012672388494 105.85575390625" height="81.7847311564494" width="395.52"><g><svg viewBox="0 0 511.93012672388494 105.85575390625" height="105.85575390625" width="511.93012672388494"><g id="textblocktransform"><svg viewBox="0 0 511.93012672388494 105.85575390625" height="105.85575390625" width="511.93012672388494" id="textblock"><g><svg viewBox="0 0 511.93012672388494 105.85575390625" height="105.85575390625" width="511.93012672388494"><g><svg><g></g><g></g></svg></g><g><svg><g></g><g><svg></svg></g></svg></g><g id="text-0"><svg viewBox="0 0 511.93012672388494 105.85575390625" height="105.85575390625" width="511.93012672388494"><g><svg xmlns="http://www.w3.org/2000/svg" xmlns:xlink="http://www.w3.org/1999/xlink" version="1.1" x="0" y="0" viewBox="9.000000000000004 7.4 82 85.2" style="enable-background:new 0 0 100 100;" xml:space="preserve" height="105.85575390625" width="101.87995094263498" class="icon-cg-0" data-fill-palette-color="accent" id="cg-0"><path d="M62.5 66.1l-15.6 9.5L32.2 51.4c-7 2.2-14.9 6.5-23.2 14.5 6.3 15.6 21.6 26.7 39.5 26.7 9.4 0 18.1-3 25.1-8.2L62.5 66.1z" fill="#ffffff" data-fill-palette-color="accent"></path><path d="M48.5 7.4c-8.8 0-16.9 2.7-23.7 7.2 5 0.8 8.5 2.3 9.9 4.6l0 0c0-0.2 0-0.3 0-0.5 0.1-2.6 2.2-4.6 4.8-4.5 2.6 0.1 4.6 2.2 4.5 4.8 0 0.1 0 0.2 0 0.3l0.7 0c4.6 0.4 17.5 7.4 17.1 11l5.4 2.7c1.6 0.2 2.7-0.4 2.3 1.2-0.6 2.2-2.1 3.8-3.8 6.2-0.8 1.2-2.2 1.9-3.6 1.9l-6.3 0 6.1 6.1c-1.3 1.4-2.5 2.2-3.7 2.1-2.9-0.3-10.5-2.5-20.7-0.7l11.2 18.4L64.2 59l13.4 22C85.8 73.3 91 62.2 91 50 91 26.5 72 7.4 48.5 7.4z" fill="#ffffff" data-fill-palette-color="accent"></path><ellipse transform="matrix(9.306440e-02 -0.9957 0.9957 9.306440e-02 15.981 76.1852)" cx="49.8" cy="29.3" rx="1.9" ry="1.9" fill="#ffffff" data-fill-palette-color="accent"></ellipse></svg></g><g transform="matrix(1,0,0,1,116.41012672388497,24.27713490365504)"><svg width="395.52" viewBox="3.69 -37.55 262.53000000000003 38.04" height="57.30148409893992" data-palette-color="#1d366f"><path d="M38.67-35.01L38.67-2.71Q38.67-2.03 38.42-1.44 38.16-0.85 37.73-0.43 37.3 0 36.72 0.24 36.13 0.49 35.47 0.49L35.47 0.49Q34.89 0.49 34.29 0.27 33.69 0.05 33.23-0.44L33.23-0.44 10.03-24.66 10.03 0 3.69 0 3.69-32.3Q3.69-33.28 4.24-34.07 4.79-34.86 5.64-35.25L5.64-35.25Q6.54-35.62 7.5-35.44 8.45-35.25 9.13-34.55L9.13-34.55 32.32-10.35 32.32-35.01 38.67-35.01ZM73.56-17.65L73.56-17.65Q73.56-16.33 73.09-14.81 72.63-13.28 71.59-11.98 70.55-10.67 68.88-9.79 67.21-8.91 64.82-8.91L64.82-8.91 53.37-8.91 53.37-14.94 64.82-14.94Q66.11-14.94 66.82-15.73 67.53-16.53 67.53-17.7L67.53-17.7Q67.53-18.95 66.73-19.65 65.94-20.36 64.82-20.36L64.82-20.36 53.37-20.36Q52.07-20.36 51.36-19.57 50.66-18.77 50.66-17.6L50.66-17.6 50.66-8.74Q50.66-7.47 51.45-6.76 52.24-6.05 53.42-6.05L53.42-6.05 64.82-6.05 64.82 0 53.37 0Q52.05 0 50.52-0.46 49-0.93 47.69-1.97 46.38-3 45.51-4.68 44.63-6.35 44.63-8.74L44.63-8.74 44.63-17.65Q44.63-18.97 45.09-20.5 45.55-22.02 46.59-23.33 47.63-24.63 49.3-25.51 50.97-26.39 53.37-26.39L53.37-26.39 64.82-26.39Q66.14-26.39 67.66-25.93 69.19-25.46 70.49-24.43 71.8-23.39 72.68-21.72 73.56-20.04 73.56-17.65ZM98.21-26.39L106.95-26.39 95.55-13.94 108.39 0 99.65 0 91.21-9.2 82.76 0 73.99 0 86.81-13.99 75.46-26.39 84.15-26.39 91.16-18.75 98.21-26.39ZM143.91-35.01L143.91-28.66 129.92-28.66 129.92 0 123.58 0 123.58-28.66 109.56-28.66 109.56-35.01 143.91-35.01ZM168.03-26.39L168.03-20.04 153.75-20.04Q152.46-20.04 151.8-19.4 151.14-18.75 151.14-17.5L151.14-17.5 151.14 0 144.79 0 144.79-17.5Q144.79-19.14 145.2-20.43 145.62-21.73 146.32-22.72 147.01-23.71 147.91-24.4 148.82-25.1 149.81-25.54 150.8-25.98 151.81-26.18 152.82-26.39 153.7-26.39L153.7-26.39 168.03-26.39ZM197.4-17.65L197.4-8.74Q197.4-7.42 196.94-5.9 196.47-4.37 195.43-3.06 194.4-1.76 192.72-0.88 191.05 0 188.66 0L188.66 0 177.21 0Q175.89 0 174.36-0.46 172.84-0.93 171.53-1.97 170.23-3 169.35-4.68 168.47-6.35 168.47-8.74L168.47-8.74Q168.47-10.06 168.93-11.6 169.4-13.13 170.43-14.44 171.47-15.75 173.14-16.63 174.82-17.5 177.21-17.5L177.21-17.5 188.66-17.5 188.66-11.45 177.21-11.45Q175.92-11.45 175.21-10.66 174.5-9.86 174.5-8.69L174.5-8.69Q174.5-7.45 175.32-6.75 176.13-6.05 177.26-6.05L177.26-6.05 188.66-6.05Q189.95-6.05 190.66-6.84 191.37-7.62 191.37-8.79L191.37-8.79 191.37-17.65Q191.37-18.9 190.6-19.63 189.83-20.36 188.66-20.36L188.66-20.36 174.72-20.36 174.72-26.39 188.66-26.39Q189.98-26.39 191.5-25.93 193.03-25.46 194.34-24.43 195.64-23.39 196.52-21.72 197.4-20.04 197.4-17.65L197.4-17.65ZM231.77-37.55L231.77-8.91Q231.77-7.28 231.36-5.97 230.94-4.66 230.26-3.67 229.57-2.69 228.67-1.99 227.77-1.29 226.78-0.85 225.79-0.42 224.78-0.21 223.76 0 222.86 0L222.86 0 211.41 0Q209.78 0 208.48-0.42 207.19-0.83 206.2-1.53 205.21-2.22 204.51-3.13 203.82-4.03 203.38-5.02 202.94-6.01 202.73-7.02 202.52-8.03 202.52-8.91L202.52-8.91 202.52-17.5Q202.52-19.95 203.42-21.64 204.31-23.34 205.64-24.4 206.97-25.46 208.53-25.93 210.09-26.39 211.41-26.39L211.41-26.39 222.86-26.39 222.86-20.04 211.46-20.04Q210.19-20.04 209.53-19.4 208.87-18.75 208.87-17.5L208.87-17.5 208.87-8.96Q208.87-7.67 209.52-7.01 210.17-6.35 211.41-6.35L211.41-6.35 222.86-6.35Q224.15-6.35 224.79-7.01 225.42-7.67 225.42-8.91L225.42-8.91 225.42-37.55 231.77-37.55ZM266.22-17.65L266.22-17.65Q266.22-16.33 265.75-14.81 265.29-13.28 264.25-11.98 263.21-10.67 261.54-9.79 259.87-8.91 257.48-8.91L257.48-8.91 246.03-8.91 246.03-14.94 257.48-14.94Q258.77-14.94 259.48-15.73 260.19-16.53 260.19-17.7L260.19-17.7Q260.19-18.95 259.39-19.65 258.6-20.36 257.48-20.36L257.48-20.36 246.03-20.36Q244.73-20.36 244.03-19.57 243.32-18.77 243.32-17.6L243.32-17.6 243.32-8.74Q243.32-7.47 244.11-6.76 244.9-6.05 246.08-6.05L246.08-6.05 257.48-6.05 257.48 0 246.03 0Q244.71 0 243.18-0.46 241.66-0.93 240.35-1.97 239.05-3 238.17-4.68 237.29-6.35 237.29-8.74L237.29-8.74 237.29-17.65Q237.29-18.97 237.75-20.5 238.21-22.02 239.25-23.33 240.29-24.63 241.96-25.51 243.63-26.39 246.03-26.39L246.03-26.39 257.48-26.39Q258.8-26.39 260.32-25.93 261.85-25.46 263.15-24.43 264.46-23.39 265.34-21.72 266.22-20.04 266.22-17.65Z" opacity="1" transform="matrix(1,0,0,1,0,0)" fill="#ffffff" class="wordmark-text-0" data-fill-palette-color="primary"></path></svg></g></svg></g></svg></g></svg></g></svg></g></svg></g><defs></defs></svg><rect width="395.52" height="81.7847311564494" fill="none" stroke="none" visibility="hidden"></rect></g></svg></g></svg>